HIERARCHY
ROOT Hips
{
  OFFSET 0.000 68.846 0.000
  CHANNELS 6 Xposition Yposition Zposition Zrotation Xrotation Yrotation
  JOINT LeftUpLeg
  {
    OFFSET 7.740 0.463 3.276
    CHANNELS 6 Xposition Yposition Zposition Zrotation Xrotation Yrotation
    JOINT LeftLeg
    {
      OFFSET 0.000 -36.562 0.000
      CHANNELS 6 Xposition Yposition Zposition Zrotation Xrotation Yrotation
      JOINT LeftFoot
      {
        OFFSET 0.000 -32.746 0.000
        CHANNELS 6 Xposition Yposition Zposition Zrotation Xrotation Yrotation
        End Site
        {
          OFFSET 0.000 0.000 9.901
        }
      }
    }
  }
  JOINT RightUpLeg
  {
    OFFSET -7.740 0.463 3.276
    CHANNELS 6 Xposition Yposition Zposition Zrotation Xrotation Yrotation
    JOINT RightLeg
    {
      OFFSET 0.000 -36.562 0.000
      CHANNELS 6 Xposition Yposition Zposition Zrotation Xrotation Yrotation
      JOINT RightFoot
      {
        OFFSET 0.000 -32.746 0.000
        CHANNELS 6 Xposition Yposition Zposition Zrotation Xrotation Yrotation
        End Site
        {
          OFFSET 0.000 0.000 9.901
        }
      }
    }
  }
  JOINT Spine
  {
    OFFSET 0.000 31.008 0.000
    CHANNELS 6 Xposition Yposition Zposition Zrotation Xrotation Yrotation
    JOINT Spine1
    {
      OFFSET 0.000 22.711 0.000
      CHANNELS 6 Xposition Yposition Zposition Zrotation Xrotation Yrotation
      JOINT LeftShoulder
      {
        OFFSET 1.828 -0.488 -0.060
        CHANNELS 6 Xposition Yposition Zposition Zrotation Xrotation Yrotation
        JOINT LeftArm
        {
          OFFSET 17.065 0.000 0.000
          CHANNELS 6 Xposition Yposition Zposition Zrotation Xrotation Yrotation
          JOINT LeftForeArm
          {
            OFFSET 23.510 0.000 0.000
            CHANNELS 6 Xposition Yposition Zposition Zrotation Xrotation Yrotation
            JOINT LeftHand
            {
              OFFSET 20.790 0.000 0.000
              CHANNELS 6 Xposition Yposition Zposition Zrotation Xrotation Yrotation
              JOINT LeftHandThumb1
              {
                OFFSET 4.877 -1.044 3.608
                CHANNELS 6 Xposition Yposition Zposition Zrotation Xrotation Yrotation
                JOINT LeftHandThumb2
                {
                  OFFSET 2.665 0.000 0.000
                  CHANNELS 6 Xposition Yposition Zposition Zrotation Xrotation Yrotation
                  JOINT LeftHandThumb3
                  {
                    OFFSET 2.543 0.000 0.000
                    CHANNELS 6 Xposition Yposition Zposition Zrotation Xrotation Yrotation
                    End Site
                    {
                      OFFSET 2.667 0.000 0.000
                    }
                  }
                }
              }
              JOINT LeftHandIndex1
              {
                OFFSET 9.232 -0.301 2.144
                CHANNELS 6 Xposition Yposition Zposition Zrotation Xrotation Yrotation
                JOINT LeftHandIndex2
                {
                  OFFSET 4.225 0.000 0.000
                  CHANNELS 6 Xposition Yposition Zposition Zrotation Xrotation Yrotation
                  JOINT LeftHandIndex3
                  {
                    OFFSET 2.654 0.000 0.000
                    CHANNELS 6 Xposition Yposition Zposition Zrotation Xrotation Yrotation
                    End Site
                    {
                      OFFSET 1.958 0.000 -0.000
                    }
                  }
                }
              }
              JOINT LeftHandMiddle1
              {
                OFFSET 8.920 0.000 0.000
                CHANNELS 6 Xposition Yposition Zposition Zrotation Xrotation Yrotation
                JOINT LeftHandMiddle2
                {
                  OFFSET 4.863 0.000 -0.000
                  CHANNELS 6 Xposition Yposition Zposition Zrotation Xrotation Yrotation
                  JOINT LeftHandMiddle3
                  {
                    OFFSET 2.765 -0.000 0.000
                    CHANNELS 6 Xposition Yposition Zposition Zrotation Xrotation Yrotation
                    End Site
                    {
                      OFFSET 2.006 -0.000 0.000
                    }
                  }
                }
              }
              JOINT LeftHandRing1
              {
                OFFSET 8.689 -0.126 -2.087
                CHANNELS 6 Xposition Yposition Zposition Zrotation Xrotation Yrotation
                JOINT LeftHandRing2
                {
                  OFFSET 4.538 0.000 -0.000
                  CHANNELS 6 Xposition Yposition Zposition Zrotation Xrotation Yrotation
                  JOINT LeftHandRing3
                  {
                    OFFSET 2.305 0.000 -0.000
                    CHANNELS 6 Xposition Yposition Zposition Zrotation Xrotation Yrotation
                    End Site
                    {
                      OFFSET 1.923 0.000 0.000
                    }
                  }
                }
              }
              JOINT LeftHandPinky1
              {
                OFFSET 8.391 -0.817 -3.758
                CHANNELS 6 Xposition Yposition Zposition Zrotation Xrotation Yrotation
                JOINT LeftHandPinky2
                {
                  OFFSET 3.044 -0.000 0.000
                  CHANNELS 6 Xposition Yposition Zposition Zrotation Xrotation Yrotation
                  JOINT LeftHandPinky3
                  {
                    OFFSET 1.975 0.000 0.000
                    CHANNELS 6 Xposition Yposition Zposition Zrotation Xrotation Yrotation
                    End Site
                    {
                      OFFSET 1.667 0.000 0.000
                    }
                  }
                }
              }
            }
          }
        }
      }
      JOINT RightShoulder
      {
        OFFSET -1.828 -0.488 -0.060
        CHANNELS 6 Xposition Yposition Zposition Zrotation Xrotation Yrotation
        JOINT RightArm
        {
          OFFSET -17.065 0.000 0.000
          CHANNELS 6 Xposition Yposition Zposition Zrotation Xrotation Yrotation
          JOINT RightForeArm
          {
            OFFSET -23.510 0.000 0.000
            CHANNELS 6 Xposition Yposition Zposition Zrotation Xrotation Yrotation
            JOINT RightHand
            {
              OFFSET -20.790 0.000 0.000
              CHANNELS 6 Xposition Yposition Zposition Zrotation Xrotation Yrotation
              JOINT RightHandThumb1
              {
                OFFSET -4.877 -1.044 3.608
                CHANNELS 6 Xposition Yposition Zposition Zrotation Xrotation Yrotation
                JOINT RightHandThumb2
                {
                  OFFSET -2.665 0.000 -0.000
                  CHANNELS 6 Xposition Yposition Zposition Zrotation Xrotation Yrotation
                  JOINT RightHandThumb3
                  {
                    OFFSET -2.543 0.000 -0.000
                    CHANNELS 6 Xposition Yposition Zposition Zrotation Xrotation Yrotation
                    End Site
                    {
                      OFFSET -2.667 0.000 0.000
                    }
                  }
                }
              }
              JOINT RightHandIndex1
              {
                OFFSET -9.232 -0.301 2.144
                CHANNELS 6 Xposition Yposition Zposition Zrotation Xrotation Yrotation
                JOINT RightHandIndex2
                {
                  OFFSET -4.225 -0.000 -0.000
                  CHANNELS 6 Xposition Yposition Zposition Zrotation Xrotation Yrotation
                  JOINT RightHandIndex3
                  {
                    OFFSET -2.654 0.000 0.000
                    CHANNELS 6 Xposition Yposition Zposition Zrotation Xrotation Yrotation
                    End Site
                    {
                      OFFSET -1.958 0.000 -0.000
                    }
                  }
                }
              }
              JOINT RightHandMiddle1
              {
                OFFSET -8.920 0.000 0.000
                CHANNELS 6 Xposition Yposition Zposition Zrotation Xrotation Yrotation
                JOINT RightHandMiddle2
                {
                  OFFSET -4.863 -0.000 -0.000
                  CHANNELS 6 Xposition Yposition Zposition Zrotation Xrotation Yrotation
                  JOINT RightHandMiddle3
                  {
                    OFFSET -2.765 0.000 0.000
                    CHANNELS 6 Xposition Yposition Zposition Zrotation Xrotation Yrotation
                    End Site
                    {
                      OFFSET -2.006 0.000 -0.000
                    }
                  }
                }
              }
              JOINT RightHandRing1
              {
                OFFSET -8.689 -0.126 -2.087
                CHANNELS 6 Xposition Yposition Zposition Zrotation Xrotation Yrotation
                JOINT RightHandRing2
                {
                  OFFSET -4.538 0.000 -0.000
                  CHANNELS 6 Xposition Yposition Zposition Zrotation Xrotation Yrotation
                  JOINT RightHandRing3
                  {
                    OFFSET -2.305 -0.000 0.000
                    CHANNELS 6 Xposition Yposition Zposition Zrotation Xrotation Yrotation
                    End Site
                    {
                      OFFSET -1.923 -0.000 0.000
                    }
                  }
                }
              }
              JOINT RightHandPinky1
              {
                OFFSET -8.391 -0.817 -3.758
                CHANNELS 6 Xposition Yposition Zposition Zrotation Xrotation Yrotation
                JOINT RightHandPinky2
                {
                  OFFSET -3.044 -0.000 -0.000
                  CHANNELS 6 Xposition Yposition Zposition Zrotation Xrotation Yrotation
                  JOINT RightHandPinky3
                  {
                    OFFSET -1.975 -0.000 -0.000
                    CHANNELS 6 Xposition Yposition Zposition Zrotation Xrotation Yrotation
                    End Site
                    {
                      OFFSET -1.667 -0.000 -0.000
                    }
                  }
                }
              }
            }
          }
        }
      }
      JOINT Neck
      {
        OFFSET 0.000 0.743 0.000
        CHANNELS 6 Xposition Yposition Zposition Zrotation Xrotation Yrotation
        JOINT Head
        {
          OFFSET 0.000 6.687 0.000
          CHANNELS 6 Xposition Yposition Zposition Zrotation Xrotation Yrotation
          End Site
          {
            OFFSET 0.000 14.241 0.000
          }
        }
      }
    }
  }
}
MOTION
Frames:	4
Frame Time:	0.033333
15.98901 78.30227 -206.90096 4.69837 -1.04135 -6.97220 7.92120 0.45171 3.32249 5.49439 -3.04333 2.97094 -0.00347 -37.77681 0.00337 3.37333 5.85853 5.01630 -0.00201 -32.71950 -0.00092 0.25450 41.01581 -0.39899 -7.51079 0.45680 3.32351 5.21503 6.61444 -5.83649 -0.00996 -36.51484 -0.00662 -4.90845 -7.16988 -30.10667 0.00012 -31.85919 -0.00125 8.03923 46.47727 -11.01864 0.00014 30.80119 -0.00001 0.03835 1.42682 -0.88470 -0.00003 22.54756 0.00019 -0.32745 2.22110 -0.82777 2.04187 -0.41779 -0.05932 -11.56901 -0.33831 1.63594 18.81902 0.02853 -0.00189 13.65156 -8.53900 -13.63094 22.91847 0.38025 0.04635 33.65990 0.54368 -28.93401 21.22719 0.47664 0.14447 -0.59057 14.27185 8.28460 4.87698 -1.04401 3.60799 -38.84817 -18.17518 4.02667 2.66500 0.00001 0.00001 0.00000 0.00000 5.00256 2.54301 0.00000 0.00001 0.00001 0.00000 59.99834 9.23199 -0.30100 2.14399 1.99784 -0.00001 0.00000 4.22498 0.00000 0.00000 1.99837 0.00000 0.00000 2.65400 0.00001 0.00001 1.99807 -0.00281 -0.00255 8.91999 0.00000 0.00000 -79.99862 -0.00000 -0.00000 4.86301 0.00000 -0.00002 -89.99851 -0.00000 0.00000 2.76500 -0.00001 0.00001 -69.99851 0.00235 -0.00215 8.68899 -0.12601 -2.08700 -79.99862 -0.00000 -0.00000 4.53800 0.00001 -0.00001 -89.99851 -0.00000 0.00000 2.30501 0.00001 -0.00001 -69.99851 0.00235 -0.00215 8.39099 -0.81701 -3.75801 1.99784 -0.00001 0.00000 3.04399 -0.00001 0.00000 1.99837 0.00000 0.00000 1.97500 0.00001 0.00001 1.99807 -0.00281 -0.00255 -1.78142 -0.51368 -0.06047 16.12164 -0.51752 -1.81233 -16.64660 -0.00482 -0.00048 54.42801 -5.77216 1.91063 -24.87507 -0.00696 -0.00719 -7.98211 -0.81526 12.00119 -21.19893 -0.00931 -0.00818 5.68034 11.38227 3.26595 -4.87700 -1.04399 3.60802 40.90540 11.75460 -3.91034 -2.66500 0.00000 -0.00001 0.00000 -0.00000 -5.00000 -2.54300 0.00000 -0.00001 -0.00000 -0.00000 -60.00000 -9.23200 -0.30100 2.14399 -2.00000 0.00000 -0.00000 -4.22500 -0.00001 -0.00001 -2.00000 0.00000 -0.00000 -2.65403 0.00001 0.00001 -2.00000 -0.00071 0.00000 -8.92000 0.00001 0.00001 80.00000 -0.00001 0.00001 -4.86301 -0.00001 -0.00002 90.00001 -0.00001 0.00001 -2.76500 0.00000 0.00000 70.00001 -0.00000 0.00001 -8.68900 -0.12599 -2.08699 80.00000 -0.00001 0.00001 -4.53801 0.00000 -0.00002 90.00001 -0.00001 0.00001 -2.30500 -0.00001 0.00001 70.00001 -0.00000 0.00001 -8.39100 -0.81699 -3.75797 -2.00000 0.00000 -0.00000 -3.04400 -0.00001 -0.00001 -2.00000 0.00000 -0.00000 -1.97500 -0.00001 -0.00002 -2.00000 -0.00071 0.00000 -0.00000 0.73603 0.00002 0.00001 -0.00004 0.00000 0.00126 6.62530 -0.00168 2.98461 14.13352 -10.52293 
16.03137 78.31709 -206.96556 4.72740 -0.97197 -6.93138 7.92165 0.44603 3.31679 5.46987 -3.20002 3.12590 -0.00358 -37.77982 0.00337 3.32894 5.90039 4.84015 -0.00201 -32.69097 -0.00092 0.26889 41.17591 -0.42112 -7.51951 0.46216 3.31743 5.14988 6.46410 -5.63589 -0.00995 -36.49250 -0.00662 -4.88887 -7.09278 -30.13605 0.00012 -31.87818 -0.00125 8.15110 46.52901 -11.15918 0.00014 30.79581 -0.00001 0.00370 1.42045 -0.89005 -0.00003 22.54430 0.00019 -0.34018 2.22519 -0.83269 2.04661 -0.41737 -0.05588 -11.54046 -0.31639 1.53619 18.85095 0.02153 -0.00103 12.10676 -7.83336 -14.32019 22.64169 0.29366 0.02122 29.00508 -1.67737 -29.23291 21.15921 0.29359 0.36368 0.77265 7.32646 8.25258 4.87698 -1.04401 3.60799 -38.84819 -18.17519 4.02668 2.66500 0.00001 0.00001 0.00000 0.00000 5.00255 2.54301 0.00000 0.00001 0.00001 0.00000 59.99835 9.23199 -0.30100 2.14399 1.99786 -0.00001 0.00000 4.22498 0.00000 0.00000 1.99839 0.00000 0.00000 2.65400 0.00001 0.00001 1.99809 -0.00281 -0.00254 8.91999 0.00000 0.00000 -79.99863 -0.00000 -0.00000 4.86301 0.00000 -0.00002 -89.99854 -0.00000 0.00000 2.76500 -0.00001 0.00001 -69.99853 0.00234 -0.00214 8.68899 -0.12601 -2.08700 -79.99863 -0.00000 -0.00000 4.53800 0.00001 -0.00001 -89.99854 -0.00000 0.00000 2.30501 0.00001 -0.00001 -69.99853 0.00234 -0.00214 8.39099 -0.81701 -3.75801 1.99786 -0.00001 0.00000 3.04399 -0.00001 0.00000 1.99839 0.00000 0.00000 1.97500 0.00001 0.00001 1.99809 -0.00281 -0.00254 -1.78129 -0.51452 -0.05679 16.13641 -0.48796 -1.70802 -16.65655 -0.00481 -0.00050 54.47451 -5.85366 1.80487 -24.87380 -0.00684 -0.00710 -7.64781 -0.52626 12.01653 -21.18521 -0.01262 -0.00795 7.58698 13.10346 2.91967 -4.87700 -1.04399 3.60802 40.90540 11.75460 -3.91034 -2.66500 0.00000 -0.00001 0.00000 -0.00000 -5.00000 -2.54300 0.00000 -0.00001 -0.00000 -0.00000 -60.00000 -9.23200 -0.30100 2.14399 -2.00000 0.00000 -0.00000 -4.22500 -0.00001 -0.00001 -2.00000 0.00000 -0.00000 -2.65403 0.00001 0.00001 -2.00000 -0.00071 0.00000 -8.92000 0.00001 0.00001 80.00000 -0.00001 0.00001 -4.86301 -0.00001 -0.00002 90.00001 -0.00001 0.00001 -2.76500 0.00000 0.00000 70.00001 -0.00000 0.00001 -8.68900 -0.12599 -2.08699 80.00000 -0.00001 0.00001 -4.53801 0.00000 -0.00002 90.00001 -0.00001 0.00001 -2.30500 -0.00001 0.00001 70.00001 -0.00000 0.00001 -8.39100 -0.81699 -3.75797 -2.00000 0.00000 -0.00000 -3.04400 -0.00001 -0.00001 -2.00000 0.00000 -0.00000 -1.97500 -0.00001 -0.00002 -2.00000 -0.00071 0.00000 -0.00000 0.73603 0.00002 0.00001 -0.00004 0.00000 0.00153 6.62488 -0.00087 3.09794 14.16598 -11.41016 
16.06861 78.31882 -207.02206 4.75567 -0.90973 -6.93512 7.92478 0.44586 3.31157 5.47481 -3.31523 3.32555 -0.00369 -37.77810 0.00337 3.23079 5.91700 4.67498 -0.00201 -32.66589 -0.00092 0.22119 41.24887 -0.34949 -7.52578 0.45928 3.31161 5.08087 6.36500 -5.49131 -0.00994 -36.50428 -0.00662 -4.84305 -7.10258 -30.46626 0.00012 -31.84967 -0.00125 11.34602 46.58544 -15.37619 0.00014 30.80016 -0.00001 -0.02639 1.41244 -0.87321 -0.00003 22.54459 0.00019 -0.34817 2.22973 -0.81877 2.04031 -0.42167 -0.05260 -11.68749 -0.30158 1.44912 18.78821 0.01318 -0.00022 7.65933 -7.60806 -15.29899 22.33123 0.17304 0.06119 25.04971 -4.88365 -29.73180 21.01235 0.07147 0.66228 1.78993 -0.15699 7.81926 4.87698 -1.04401 3.60799 -38.84819 -18.17521 4.02669 2.66500 0.00001 0.00001 0.00000 0.00000 5.00253 2.54301 0.00000 0.00001 0.00001 0.00000 59.99836 9.23199 -0.30100 2.14399 1.99788 -0.00001 0.00000 4.22498 0.00000 0.00000 1.99840 0.00000 0.00000 2.65400 0.00001 0.00001 1.99811 -0.00280 -0.00252 8.91999 0.00000 0.00000 -79.99865 -0.00000 -0.00000 4.86301 0.00000 -0.00002 -89.99854 -0.00000 0.00000 2.76500 -0.00001 0.00001 -69.99854 0.00232 -0.00212 8.68899 -0.12601 -2.08700 -79.99865 -0.00000 -0.00000 4.53800 0.00001 -0.00001 -89.99854 -0.00000 0.00000 2.30501 0.00001 -0.00001 -69.99854 0.00232 -0.00212 8.39099 -0.81701 -3.75801 1.99788 -0.00001 0.00000 3.04399 -0.00001 0.00000 1.99840 0.00000 0.00000 1.97500 0.00001 0.00001 1.99811 -0.00280 -0.00252 -1.78117 -0.51528 -0.05327 16.14984 -0.46033 -1.60997 -16.66674 -0.00480 -0.00052 54.60775 -5.84096 1.71252 -24.87253 -0.00674 -0.00701 -7.16957 -0.30429 11.94614 -21.23278 -0.01478 -0.00775 8.81085 13.95109 2.71444 -4.87700 -1.04399 3.60802 40.90540 11.75460 -3.91034 -2.66500 0.00000 -0.00001 0.00000 -0.00000 -5.00000 -2.54300 0.00000 -0.00001 -0.00000 -0.00000 -60.00000 -9.23200 -0.30100 2.14399 -2.00000 0.00000 -0.00000 -4.22500 -0.00001 -0.00001 -2.00000 0.00000 -0.00000 -2.65403 0.00001 0.00001 -2.00000 -0.00071 0.00000 -8.92000 0.00001 0.00001 80.00000 -0.00001 0.00001 -4.86301 -0.00001 -0.00002 90.00001 -0.00001 0.00001 -2.76500 0.00000 0.00000 70.00001 -0.00000 0.00001 -8.68900 -0.12599 -2.08699 80.00000 -0.00001 0.00001 -4.53801 0.00000 -0.00002 90.00001 -0.00001 0.00001 -2.30500 -0.00001 0.00001 70.00001 -0.00000 0.00001 -8.39100 -0.81699 -3.75797 -2.00000 0.00000 -0.00000 -3.04400 -0.00001 -0.00001 -2.00000 0.00000 -0.00000 -1.97500 -0.00001 -0.00002 -2.00000 -0.00071 0.00000 -0.00000 0.73603 0.00002 0.00001 -0.00004 0.00000 0.00179 6.62473 -0.00005 3.23478 14.17855 -12.47718 
16.09506 78.30598 -207.08192 4.77542 -0.83659 -6.97732 7.93079 0.45326 3.30672 5.50909 -3.41217 3.54278 -0.00281 -37.77999 0.00237 3.11280 5.89197 4.52856 -0.00201 -32.61643 -0.00085 0.17691 41.34711 -0.27836 -7.53139 0.44966 3.30604 5.04713 6.25211 -5.33274 -0.00993 -36.48583 -0.00662 -4.83600 -7.11405 -30.86004 0.00012 -31.84065 -0.00125 11.80795 46.27451 -16.08968 0.00014 30.81465 -0.00001 -0.04590 1.39447 -0.83300 -0.00003 22.54628 0.00019 -0.34051 2.25046 -0.78561 2.02153 -0.43151 -0.04996 -12.06595 -0.29654 1.38481 18.62226 0.00496 0.00058 2.46368 -7.20500 -16.22240 21.98608 0.04966 0.10671 19.75646 -8.08681 -29.84875 20.52881 -0.18092 1.02436 2.83752 -6.83693 6.43967 4.87698 -1.04401 3.60799 -38.84821 -18.17522 4.02670 2.66500 0.00001 0.00001 0.00000 0.00000 5.00251 2.54301 0.00000 0.00001 0.00001 0.00000 59.99837 9.23199 -0.30100 2.14399 1.99790 -0.00001 0.00000 4.22498 0.00000 0.00000 1.99842 0.00000 0.00000 2.65400 0.00001 0.00001 1.99812 -0.00279 -0.00251 8.91999 0.00000 0.00000 -79.99866 -0.00000 -0.00000 4.86301 0.00000 -0.00002 -89.99855 -0.00000 0.00000 2.76500 -0.00001 0.00001 -69.99855 0.00230 -0.00211 8.68899 -0.12601 -2.08700 -79.99866 -0.00000 -0.00000 4.53800 0.00001 -0.00001 -89.99855 -0.00000 0.00000 2.30501 0.00001 -0.00001 -69.99855 0.00230 -0.00211 8.39099 -0.81701 -3.75801 1.99790 -0.00001 0.00000 3.04399 -0.00001 0.00000 1.99842 0.00000 0.00000 1.97500 0.00001 0.00001 1.99812 -0.00279 -0.00251 -1.78105 -0.51597 -0.05039 16.14994 -0.43716 -1.52973 -16.67489 -0.00479 -0.00054 54.80339 -5.76971 1.64569 -24.87128 -0.00663 -0.00692 -6.74645 -0.10986 11.87059 -21.29499 -0.01544 -0.00757 9.74535 14.65904 2.38007 -4.87700 -1.04399 3.60802 40.90540 11.75460 -3.91034 -2.66500 0.00000 -0.00001 0.00000 -0.00000 -5.00000 -2.54300 0.00000 -0.00001 -0.00000 -0.00000 -60.00000 -9.23200 -0.30100 2.14399 -2.00000 0.00000 -0.00000 -4.22500 -0.00001 -0.00001 -2.00000 0.00000 -0.00000 -2.65403 0.00001 0.00001 -2.00000 -0.00071 0.00000 -8.92000 0.00001 0.00001 80.00000 -0.00001 0.00001 -4.86301 -0.00001 -0.00002 90.00001 -0.00001 0.00001 -2.76500 0.00000 0.00000 70.00001 -0.00000 0.00001 -8.68900 -0.12599 -2.08699 80.00000 -0.00001 0.00001 -4.53801 0.00000 -0.00002 90.00001 -0.00001 0.00001 -2.30500 -0.00001 0.00001 70.00001 -0.00000 0.00001 -8.39100 -0.81699 -3.75797 -2.00000 0.00000 -0.00000 -3.04400 -0.00001 -0.00001 -2.00000 0.00000 -0.00000 -1.97500 -0.00001 -0.00002 -2.00000 -0.00071 0.00000 -0.00000 0.73603 0.00002 0.00001 -0.00004 0.00000 0.00203 6.62488 0.00076 3.41747 14.10851 -13.29653 
